<svg width="216" height="56" viewBox="0 0 216 56" fill="none" xmlns="http://www.w3.org/2000/svg">
<path d="M134.053 9.00625V31.7535L130.127 28.6339L115.994 17.3578V31.7535H112.068V9.07124L115.994 12.1909L130.127 23.467V8.97375L134.053 9.00625Z" fill="white" stroke="white" stroke-miterlimit="10"/>
<path d="M137.194 31.721V8.97375H141.12V31.721H137.194Z" fill="white" stroke="white" stroke-miterlimit="10"/>
<path d="M166.246 9.00625V31.7535L162.32 28.6339L148.187 17.3578V31.7535H144.261V9.07124L148.187 12.1909L162.32 23.467V8.97375L166.246 9.00625Z" fill="white" stroke="white" stroke-miterlimit="10"/>
<path d="M191.371 8.97375V25.5793C191.371 28.9589 188.701 31.6885 185.435 31.6885H175.321C172.055 31.6885 169.385 28.9589 169.385 25.5793V21.3223H173.311V25.5793C173.311 26.7166 174.222 27.659 175.321 27.659H185.435C186.534 27.659 187.445 26.7166 187.445 25.5793V8.97375H191.371Z" fill="white" stroke="white" stroke-miterlimit="10"/>
<path d="M33.7633 29.5641C32.3751 28.7075 31.1276 27.7482 29.7381 27.1334C28.3826 26.5328 26.8826 26.2833 25.3336 25.8478C29.8902 17.6783 34.4782 9.45159 39.193 1C43.8903 9.41779 48.4859 17.6549 53.1831 26.0714C49.805 26.1663 47.1529 27.5623 44.7949 29.6525C45.3715 30.756 45.9017 31.8128 46.4821 32.8384C46.5914 33.0321 46.8891 33.1529 47.1228 33.2205C47.5399 33.3414 47.9771 33.3882 48.4029 33.4792C49.9846 33.8172 49.9821 33.8185 50.4218 32.1664C50.6065 31.4735 50.7547 30.8379 50.4218 30.0879C49.9984 29.1325 50.5386 28.0316 51.4457 27.6143C52.3301 27.2062 53.3641 27.5337 53.8904 28.3864C54.4281 29.2573 54.202 30.3414 53.4407 31.0667C53.0864 31.4034 52.7711 31.87 52.6266 32.3405C52.2095 33.7054 51.8879 35.1014 51.5035 36.578C43.271 34.1668 35.1076 34.1837 26.8889 36.5767C26.4869 35.0247 26.1401 33.5741 25.7205 32.1456C25.6049 31.753 25.3311 31.3579 25.0258 31.0875C24.1715 30.3297 23.9542 29.2963 24.5358 28.363C25.0723 27.5012 26.0949 27.214 26.9818 27.6767C27.9492 28.181 28.37 29.2209 27.9291 30.2582C27.615 30.9978 27.806 31.7387 28.0635 32.4601C28.1238 32.6304 28.1866 32.7994 28.2419 32.971C28.2846 33.1023 28.3148 33.2374 28.3499 33.3713C28.3763 33.4727 28.3901 33.5624 28.4806 33.6222C28.6125 33.7093 28.8135 33.7327 28.9668 33.7067C29.767 33.5689 30.5648 33.4025 31.3525 33.1984C31.5786 33.1399 31.8337 32.9619 31.9543 32.7604C32.2445 32.2782 32.443 31.7387 32.7168 31.2448C32.9882 30.7521 33.3073 30.2881 33.7633 29.5641ZM49.6341 24.2061C46.1655 17.9916 42.7132 11.8082 39.193 5.50006C35.6515 11.8511 32.2093 18.0254 28.7658 24.1996C30.399 25.1303 30.3952 25.129 31.2193 23.6537C33.6993 19.2108 36.1817 14.7692 38.6654 10.329C38.8149 10.0625 38.9883 9.81164 39.2131 9.45419C39.4631 9.87664 39.6327 10.1522 39.7898 10.4343C42.2433 14.8238 44.6931 19.216 47.1466 23.6043C47.9306 25.0068 47.9343 25.0055 49.3753 24.405C49.4256 24.3829 49.4658 24.3361 49.6341 24.2061ZM35.1942 28.0017C36.3111 27.1841 37.4103 26.4107 38.4719 25.5866C39.0008 25.1771 39.433 25.2018 39.943 25.6048C40.8413 26.3145 41.7609 26.9943 42.6931 27.6546C42.8916 27.795 43.271 27.9406 43.4104 27.8431C44.2672 27.2478 45.0788 26.5822 45.9469 25.9076C44.6567 23.6225 43.3928 21.3842 42.0737 19.047C41.0674 20.1623 40.1516 21.1788 39.1968 22.2356C38.1968 21.1294 37.2935 20.1285 36.3098 19.0405C34.9807 21.4076 33.7093 23.6693 32.4392 25.931C33.4342 26.6771 34.3199 27.3439 35.1942 28.0017Z" fill="url(#paint0_linear_470_3667)" stroke="#134DC6" stroke-width="0.5" stroke-miterlimit="10"/>
<path d="M36.3681 22.3096C37.0289 22.3668 37.3719 22.7593 37.3932 23.4066C37.4146 24.0852 37.0327 24.4478 36.3932 24.4907C35.7889 24.531 35.3103 24.0137 35.3279 23.3624C35.3467 22.6657 35.7588 22.3772 36.3681 22.3096Z" fill="url(#paint1_linear_470_3667)" stroke="#051028" stroke-miterlimit="10"/>
<path d="M42.0014 22.3062C42.6233 22.3685 43.058 22.6558 43.0605 23.3629C43.063 24.0323 42.7162 24.4652 42.0655 24.486C41.4285 24.5055 41.0027 24.1493 41.0039 23.45C41.0052 22.7962 41.3368 22.3841 42.0014 22.3062Z" fill="url(#paint2_linear_470_3667)" stroke="#051028" stroke-miterlimit="10"/>
<path d="M11.9612 9.52285C18.0228 9.52285 22.9538 14.5922 22.9538 20.864C22.9538 23.6587 21.9801 26.2258 20.347 28.2081C20.1585 28.4356 19.9387 28.6631 19.7188 28.8905C17.7401 30.9703 15.0077 32.2376 11.9926 32.2376H1V9.49036L11.9612 9.52285ZM4.89452 28.2081H11.9612C15.8557 28.2081 19.0279 24.926 19.0279 20.8965C19.0279 16.867 15.8557 13.5849 11.9612 13.5849H4.89452V28.2081Z" fill="url(#paint3_linear_470_3667)" stroke="#134DC6" stroke-width="0.5" stroke-miterlimit="10"/>
<path d="M91.8915 18.6218L101.408 32.2376H96.5712L88.9706 21.3839L83.4115 26.6158V32.2376H79.4856V9.49036H83.4115V21.124L86.6465 18.0693L89.5674 15.3072L95.6918 9.49036H101.502L91.8915 18.6218Z" fill="url(#paint4_linear_470_3667)" stroke="#134DC6" stroke-width="0.5" stroke-miterlimit="10"/>
<path d="M70.8702 32.1589V26.5657C70.8702 23.8724 69.6767 22.8234 66.6126 22.8234H60.7758V32.1589H56.9856V9.41162H68.5511C72.5511 9.41162 75.3451 12.0217 75.3451 15.7588C75.3451 18.1778 74.1491 20.0508 72.1466 20.771L70.6302 21.3169L72.1629 21.8108C74.0825 22.4296 74.6994 23.4369 74.6994 25.956V32.1589H70.8702ZM60.7771 19.8949H67.546C70.2056 19.8949 71.732 18.5443 71.732 16.189C71.732 13.8103 70.2722 12.4468 67.7257 12.4468H60.7771V19.8949V19.8949Z" fill="url(#paint5_linear_470_3667)" stroke="#134DC6" stroke-width="0.5" stroke-miterlimit="10"/>
<path d="M212.992 27.58L203.79 8.89478L194.588 27.58L192.578 31.642H196.975L198.389 28.7824H204.43C204.347 28.7564 204.256 28.7226 204.154 28.6732C204.029 28.6186 203.882 28.5549 203.736 28.4626C203.659 28.4171 203.58 28.369 203.499 28.3209C203.421 28.2638 203.342 28.204 203.259 28.1442C203.169 28.0818 203.085 28.0103 203.001 27.9323C201.881 26.8989 201.291 25.4509 201.272 23.9041C201.267 23.5063 200.357 23.453 200.093 23.4465C199.595 23.4335 199.1 23.5492 198.638 23.7338C198.496 23.791 198.378 23.8612 198.269 23.9262C198.157 23.9873 198.063 24.0497 197.991 24.1082C197.946 24.1432 197.906 24.1718 197.872 24.1978C197.806 24.2472 197.772 24.2225 197.796 24.1406C197.808 24.0991 197.823 24.0497 197.839 23.9938C197.864 23.8963 197.904 23.7819 197.961 23.6545C198.014 23.5245 198.075 23.3724 198.164 23.2217C198.208 23.1424 198.254 23.0605 198.301 22.976C199.094 21.554 200.874 20.6597 202.424 20.674C203.078 20.6805 203.04 19.6692 203.016 19.1778C202.989 18.5981 202.811 18.073 202.55 17.566C202.49 17.4504 202.431 17.3542 202.374 17.2788C202.264 17.1228 202.201 17.0331 202.201 17.0331C202.201 17.0331 202.252 17.05 202.343 17.0773C202.383 17.089 202.431 17.1046 202.485 17.1215C203.615 17.44 204.595 18.4577 205.117 19.5106C205.411 20.1046 205.595 20.7637 205.664 21.4266C205.688 21.6514 205.623 22.031 205.78 22.2065C206.427 22.9305 208.023 22.3664 208.698 21.9946C208.81 21.9322 208.904 21.8711 208.975 21.8126C209.021 21.7788 209.06 21.7476 209.094 21.7229C209.159 21.6735 209.193 21.6995 209.17 21.7801C209.158 21.8217 209.143 21.8711 209.127 21.927C209.054 22.2026 208.95 22.4638 208.818 22.7095C208.249 23.7728 207.182 24.541 206.108 24.9556C205.85 25.0544 205.585 25.1064 205.322 25.1675C205.059 25.2013 204.794 25.2494 204.541 25.2468C204.491 25.2468 204.443 25.2481 204.394 25.2481C204.314 25.2494 204.222 25.2988 204.193 25.3612C203.693 26.4804 204.004 27.8036 204.678 28.7655C204.682 28.772 204.683 28.7759 204.687 28.7824H209.188L210.603 31.642H215L212.992 27.58Z" fill="white" stroke="white" stroke-miterlimit="10"/>
<path d="M203.669 22.6286C203.827 22.7327 203.891 22.9633 203.789 23.1519C203.781 23.1667 203.775 23.1796 203.77 23.1891C203.658 23.3556 203.452 23.3922 203.297 23.2908L203.297 23.2908C203.138 23.1867 203.074 22.9562 203.176 22.7676C203.183 22.7545 203.189 22.7431 203.193 22.7346C203.194 22.733 203.195 22.7314 203.196 22.7298C203.308 22.5635 203.515 22.5277 203.668 22.6282L203.669 22.6286ZM203.761 23.2097C203.76 23.211 203.76 23.2105 203.761 23.2086L203.761 23.2097Z" fill="white" stroke="white"/>
<path d="M2.128 52.213V43.813H3.688V52.213H2.128ZM10.304 52.213V45.133H7.52003V43.813H14.648V45.133H11.864V52.213H10.304ZM27.0192 52.333C26.3632 52.333 25.7352 52.241 25.1352 52.057C24.5352 51.865 24.0592 51.621 23.7072 51.325L24.2472 50.113C24.5832 50.377 24.9992 50.597 25.4952 50.773C25.9912 50.949 26.4992 51.037 27.0192 51.037C27.4592 51.037 27.8152 50.989 28.0872 50.893C28.3592 50.797 28.5592 50.669 28.6872 50.509C28.8152 50.341 28.8792 50.153 28.8792 49.945C28.8792 49.689 28.7872 49.485 28.6032 49.333C28.4192 49.173 28.1792 49.049 27.8832 48.961C27.5952 48.865 27.2712 48.777 26.9112 48.697C26.5592 48.617 26.2032 48.525 25.8432 48.421C25.4912 48.309 25.1672 48.169 24.8712 48.001C24.5832 47.825 24.3472 47.593 24.1632 47.305C23.9792 47.017 23.8872 46.649 23.8872 46.201C23.8872 45.745 24.0072 45.329 24.2472 44.953C24.4952 44.569 24.8672 44.265 25.3632 44.041C25.8672 43.809 26.5032 43.693 27.2712 43.693C27.7752 43.693 28.2752 43.757 28.7712 43.885C29.2672 44.013 29.6992 44.197 30.0672 44.437L29.5752 45.649C29.1992 45.425 28.8112 45.261 28.4112 45.157C28.0112 45.045 27.6272 44.989 27.2592 44.989C26.8272 44.989 26.4752 45.041 26.2032 45.145C25.9392 45.249 25.7432 45.385 25.6152 45.553C25.4952 45.721 25.4352 45.913 25.4352 46.129C25.4352 46.385 25.5232 46.593 25.6992 46.753C25.8832 46.905 26.1192 47.025 26.4072 47.113C26.7032 47.201 27.0312 47.289 27.3912 47.377C27.7512 47.457 28.1072 47.549 28.4592 47.653C28.8192 47.757 29.1432 47.893 29.4312 48.061C29.7272 48.229 29.9632 48.457 30.1392 48.745C30.3232 49.033 30.4152 49.397 30.4152 49.837C30.4152 50.285 30.2912 50.701 30.0432 51.085C29.8032 51.461 29.4312 51.765 28.9272 51.997C28.4232 52.221 27.7872 52.333 27.0192 52.333ZM38.5381 52.333C37.8821 52.333 37.2781 52.225 36.7261 52.009C36.1741 51.793 35.6941 51.493 35.2861 51.109C34.8781 50.717 34.5621 50.261 34.3381 49.741C34.1141 49.213 34.0021 48.637 34.0021 48.013C34.0021 47.389 34.1141 46.817 34.3381 46.297C34.5621 45.769 34.8781 45.313 35.2861 44.929C35.6941 44.537 36.1741 44.233 36.7261 44.017C37.2781 43.801 37.8781 43.693 38.5261 43.693C39.1821 43.693 39.7821 43.801 40.3261 44.017C40.8781 44.233 41.3581 44.537 41.7661 44.929C42.1741 45.313 42.4901 45.769 42.7141 46.297C42.9381 46.817 43.0501 47.389 43.0501 48.013C43.0501 48.637 42.9381 49.213 42.7141 49.741C42.4901 50.269 42.1741 50.725 41.7661 51.109C41.3581 51.493 40.8781 51.793 40.3261 52.009C39.7821 52.225 39.1861 52.333 38.5381 52.333ZM38.5261 50.965C38.9501 50.965 39.3421 50.893 39.7021 50.749C40.0621 50.605 40.3741 50.401 40.6381 50.137C40.9021 49.865 41.1061 49.553 41.2501 49.201C41.4021 48.841 41.4781 48.445 41.4781 48.013C41.4781 47.581 41.4021 47.189 41.2501 46.837C41.1061 46.477 40.9021 46.165 40.6381 45.901C40.3741 45.629 40.0621 45.421 39.7021 45.277C39.3421 45.133 38.9501 45.061 38.5261 45.061C38.1021 45.061 37.7101 45.133 37.3501 45.277C36.9981 45.421 36.6861 45.629 36.4141 45.901C36.1501 46.165 35.9421 46.477 35.7901 46.837C35.6461 47.189 35.5741 47.581 35.5741 48.013C35.5741 48.437 35.6461 48.829 35.7901 49.189C35.9421 49.549 36.1501 49.865 36.4141 50.137C36.6781 50.401 36.9901 50.605 37.3501 50.749C37.7101 50.893 38.1021 50.965 38.5261 50.965ZM47.3436 52.213V43.813H48.9036V50.893H53.2956V52.213H47.3436ZM60.662 52.333C59.51 52.333 58.606 52.009 57.95 51.361C57.302 50.713 56.978 49.777 56.978 48.553V43.813H58.538V48.493C58.538 49.357 58.722 49.985 59.09 50.377C59.466 50.769 59.994 50.965 60.674 50.965C61.354 50.965 61.878 50.769 62.246 50.377C62.614 49.985 62.798 49.357 62.798 48.493V43.813H64.334V48.553C64.334 49.777 64.006 50.713 63.35 51.361C62.702 52.009 61.806 52.333 60.662 52.333ZM70.7104 52.213V45.133H67.9264V43.813H75.0544V45.133H72.2704V52.213H70.7104ZM78.8652 52.213V43.813H80.4252V52.213H78.8652ZM89.2732 52.333C88.6172 52.333 88.0132 52.225 87.4612 52.009C86.9092 51.793 86.4292 51.493 86.0212 51.109C85.6132 50.717 85.2972 50.261 85.0732 49.741C84.8492 49.213 84.7372 48.637 84.7372 48.013C84.7372 47.389 84.8492 46.817 85.0732 46.297C85.2972 45.769 85.6132 45.313 86.0212 44.929C86.4292 44.537 86.9092 44.233 87.4612 44.017C88.0132 43.801 88.6132 43.693 89.2612 43.693C89.9172 43.693 90.5172 43.801 91.0612 44.017C91.6132 44.233 92.0932 44.537 92.5012 44.929C92.9092 45.313 93.2252 45.769 93.4492 46.297C93.6732 46.817 93.7852 47.389 93.7852 48.013C93.7852 48.637 93.6732 49.213 93.4492 49.741C93.2252 50.269 92.9092 50.725 92.5012 51.109C92.0932 51.493 91.6132 51.793 91.0612 52.009C90.5172 52.225 89.9212 52.333 89.2732 52.333ZM89.2612 50.965C89.6852 50.965 90.0772 50.893 90.4372 50.749C90.7972 50.605 91.1092 50.401 91.3732 50.137C91.6372 49.865 91.8412 49.553 91.9852 49.201C92.1372 48.841 92.2132 48.445 92.2132 48.013C92.2132 47.581 92.1372 47.189 91.9852 46.837C91.8412 46.477 91.6372 46.165 91.3732 45.901C91.1092 45.629 90.7972 45.421 90.4372 45.277C90.0772 45.133 89.6852 45.061 89.2612 45.061C88.8372 45.061 88.4452 45.133 88.0852 45.277C87.7332 45.421 87.4212 45.629 87.1492 45.901C86.8852 46.165 86.6772 46.477 86.5252 46.837C86.3812 47.189 86.3092 47.581 86.3092 48.013C86.3092 48.437 86.3812 48.829 86.5252 49.189C86.6772 49.549 86.8852 49.865 87.1492 50.137C87.4132 50.401 87.7252 50.605 88.0852 50.749C88.4452 50.893 88.8372 50.965 89.2612 50.965ZM98.0788 52.213V43.813H99.3628L104.631 50.281H103.995V43.813H105.543V52.213H104.259L98.9908 45.745H99.6268V52.213H98.0788Z" fill="#E0DEDE"/>
<defs>
<linearGradient id="paint0_linear_470_3667" x1="24.2094" y1="18.7888" x2="54.1838" y2="18.7888" gradientUnits="userSpaceOnUse">
<stop offset="2.44532e-07" stop-color="#0052D4"/>
<stop offset="0.4805" stop-color="#4364F7"/>
<stop offset="1" stop-color="#0052D4"/>
</linearGradient>
<linearGradient id="paint1_linear_470_3667" x1="35.3275" y1="23.4013" x2="37.3942" y2="23.4013" gradientUnits="userSpaceOnUse">
<stop offset="2.44532e-07" stop-color="#091C38"/>
<stop offset="0.4805" stop-color="#091C4E"/>
<stop offset="1" stop-color="#091C38"/>
</linearGradient>
<linearGradient id="paint2_linear_470_3667" x1="41.0038" y1="23.3967" x2="43.0603" y2="23.3967" gradientUnits="userSpaceOnUse">
<stop offset="2.44532e-07" stop-color="#091C38"/>
<stop offset="0.4805" stop-color="#091C4E"/>
<stop offset="1" stop-color="#091C38"/>
</linearGradient>
<linearGradient id="paint3_linear_470_3667" x1="0.999786" y1="20.8641" x2="22.9536" y2="20.8641" gradientUnits="userSpaceOnUse">
<stop offset="4.30376e-07" stop-color="#0052D4"/>
<stop offset="0.4805" stop-color="#4364F7"/>
<stop offset="1" stop-color="#0052D4"/>
</linearGradient>
<linearGradient id="paint4_linear_470_3667" x1="79.486" y1="20.8641" x2="101.503" y2="20.8641" gradientUnits="userSpaceOnUse">
<stop offset="2.44532e-07" stop-color="#0052D4"/>
<stop offset="0.4805" stop-color="#4364F7"/>
<stop offset="1" stop-color="#0052D4"/>
</linearGradient>
<linearGradient id="paint5_linear_470_3667" x1="56.985" y1="20.7849" x2="75.3441" y2="20.7849" gradientUnits="userSpaceOnUse">
<stop offset="2.44532e-07" stop-color="#0052D4"/>
<stop offset="0.4805" stop-color="#4364F7"/>
<stop offset="1" stop-color="#0052D4"/>
</linearGradient>
</defs>
</svg>
